<svg xmlns="http://www.w3.org/2000/svg" width="480" height="680"><defs><linearGradient id="g" x1="0" y1="0" x2="1" y2="1"><stop stop-color="#"/><stop offset="1" stop-color="#090c14"/></linearGradient></defs><rect x="8" y="8" width="464" height="664" rx="28" fill="url(#g)" stroke="3" stroke-width="8"/><text x="34" y="52" fill="0" font-size="20" font-family="Arial" font-weight="700">WAIFUMON • CARTA 38</text><text x="446" y="52" text-anchor="end" fill="3" font-size="26" font-family="Arial" font-weight="700">R</text><circle cx="240" cy="336" r="140" fill="#090c14" opacity=".55"/><path d="M145 338 Q150 220 240 190 Q330 220 335 338 L322 420 Q240 470 158 420Z" fill="#4a5060"/><ellipse cx="240" cy="338" rx="86" ry="112" fill="#f2d1bd"/><path d="M152 312 Q160 210 240 184 Q320 210 328 312 Q282 270 240 282 Q198 270 152 312Z" fill="#4a5060"/><path d="M170 430 Q240 395 310 430 L345 535 L135 535Z" fill="3"/><ellipse cx="205" cy="336" rx="12" ry="16" fill="0"/><ellipse cx="275" cy="336" rx="12" ry="16" fill="0"/><circle cx="208" cy="339" r="5"/><circle cx="278" cy="339" r="5"/><path d="M216 386 Q240 400 264 386" fill="none" stroke="#9e5c66" stroke-width="5" stroke-linecap="round"/><circle cx="335" cy="248" r="24" fill="3"/><text x="335" y="256" text-anchor="middle" fill="0" font-size="20" font-family="Arial">✦</text><rect x="32" y="555" width="416" height="80" rx="18" fill="#0a0d14" stroke="3" stroke-width="2"/><text x="48" y="585" fill="#fff" font-size="22" font-family="Arial" font-weight="700">Cha Hae-In</text><text x="48" y="612" fill="0" font-size="13" font-family="Arial">Solo Leveling</text><text x="330" y="585" fill="3" font-size="20" font-family="Arial" font-weight="700">CLASE B</text><text x="330" y="612" fill="0" font-size="12" font-family="Arial">ARTE ORIGINAL</text><text x="240" y="657" text-anchor="middle" fill="#aab3c7" font-size="11" font-family="Arial">VISUAL NO CANÓNICO • V1</text></svg>