<svg xmlns="http://www.w3.org/2000/svg" width="720" height="1020" viewBox="0 0 720 1020">
<defs>
<linearGradient id="b" x1="0" y1="1" x2="1" y2="0"><stop stop-color="#22223e"/><stop offset=".5" stop-color="#784a74"/><stop offset="1" stop-color="#151d32"/></linearGradient>
<radialGradient id="f" cx=".5" cy=".22" r=".65"><stop stop-color="#ffd4ed" stop-opacity=".35"/><stop offset="1" stop-opacity="0"/></radialGradient>
<linearGradient id="hair" x1="0" y1="0" x2="1" y2="1"><stop stop-color="#e6c6d7"/><stop offset=".5" stop-color="#d4a4bf"/><stop offset="1" stop-color="#8e5b8a"/></linearGradient>
<linearGradient id="top" x1="0" y1="0" x2="1" y2="1"><stop stop-color="#f1e8ef"/><stop offset="1" stop-color="#b3a1bd"/></linearGradient>
</defs>
<rect x="14" y="14" width="692" height="992" rx="40" fill="url(#b)" stroke="#efc0df" stroke-width="7"/>
<rect x="28" y="28" width="664" height="964" rx="30" fill="url(#f)"/>
<text x="52" y="78" fill="#fff2fa" font-family="Georgia,serif" font-size="25" font-weight="700" letter-spacing="2">WAIFUMON</text>
<text x="666" y="80" text-anchor="end" fill="#efb4d8" font-family="Arial" font-size="32" font-weight="800">S</text>
<text x="52" y="112" fill="#ddc9d8" font-family="Arial" font-size="13" letter-spacing="3">INO • 40% • FLORES / ENERGÍA / CONFIANZA</text>

<g fill="#f1c5df" opacity=".78">
<circle cx="122" cy="250" r="18"/><circle cx="602" cy="250" r="17"/><circle cx="88" cy="350" r="10"/><circle cx="632" cy="356" r="11"/>
</g>
<g stroke="#95c18d" stroke-width="5" opacity=".8">
<path d="M122 267 Q108 320 88 356"/><path d="M602 268 Q620 320 632 356"/>
</g>

<g stroke="#171322" stroke-width="9" stroke-linejoin="round">
<path d="M212 400 Q198 260 267 178 Q359 72 467 166 Q540 229 512 404 Q497 512 446 588 L275 588 Q218 514 212 400Z" fill="url(#hair)"/>
<path d="M269 237 Q359 164 451 238 L457 363 Q439 444 359 471 Q279 444 261 362Z" fill="#f4d5c5"/>
<path d="M257 249 Q286 149 366 148 Q450 151 469 249 Q430 214 405 239 Q371 191 339 239 Q300 207 257 249Z" fill="url(#hair)"/>
<path d="M274 227 Q251 337 280 443" fill="none" stroke="#f3d9e9" stroke-width="10"/>
<path d="M445 226 Q468 338 439 443" fill="none" stroke="#f3d9e9" stroke-width="10"/>
<ellipse cx="320" cy="338" rx="13" ry="19" fill="#4e6688"/><ellipse cx="399" cy="338" rx="13" ry="19" fill="#4e6688"/>
<circle cx="323" cy="331" r="5" fill="#fff" stroke="none"/><circle cx="402" cy="331" r="5" fill="#fff" stroke="none"/>
<path d="M338 400 Q359 412 380 400" fill="none" stroke="#a25f73" stroke-width="5"/>

<path d="M286 452 Q359 426 434 452 L474 688 Q431 742 359 756 Q288 742 245 688Z" fill="url(#top)"/>
<path d="M313 458 L359 510 L405 458" fill="none" stroke="#7f4f77" stroke-width="8"/>
<path d="M359 510 L359 704" stroke="#b57e9f" stroke-width="5"/>

<!-- confident arms, floral accessory -->
<path d="M286 474 Q244 512 214 575 Q201 601 221 620 Q243 637 261 612 L322 538" fill="url(#top)"/>
<path d="M432 474 Q486 510 518 570 Q535 598 515 619 Q492 637 470 612 L398 538" fill="url(#top)"/>
<path d="M221 574 Q208 544 194 547 Q176 552 186 570 L208 598" fill="#f4d5c5"/>
<path d="M499 566 Q518 542 532 551 Q546 562 536 578 L514 600" fill="#f4d5c5"/>

<g transform="translate(359 622)">
<path d="M0-42 C-24-60-43-41-29-17 C-55-15-53 14-26 13 C-41 36-14 52 3 31 C18 53 46 35 30 12 C58 14 55-15 30-18 C44-43 22-60 0-42Z" fill="#d77dae"/>
<circle r="11" fill="#f7d65a"/>
</g>
<path d="M250 684 Q359 719 468 684 L484 822 Q430 862 359 869 Q288 861 236 822Z" fill="#785675"/>
</g>

<rect x="42" y="900" width="636" height="70" rx="20" fill="#0e1421" opacity=".93" stroke="#efc0df" stroke-width="2"/>
<text x="64" y="929" fill="#fff0fa" font-family="Arial" font-size="22" font-weight="700">Ino Yamanaka</text>
<text x="64" y="952" fill="#d9c5d5" font-family="Arial" font-size="12">Naruto • S visual • 40% • flores y energía</text>
<text x="656" y="929" text-anchor="end" fill="#efb4d8" font-family="Arial" font-size="14" font-weight="700">POSE SEGURA</text>
<text x="656" y="952" text-anchor="end" fill="#d9c5d5" font-family="Arial" font-size="11">flor / movimiento / composición unitaria</text>
</svg>