<svg xmlns="http://www.w3.org/2000/svg" width="480" height="680" viewBox="0 0 480 680">
<defs><linearGradient id="bg" x1="0" y1="0" x2="1" y2="1"><stop stop-color="#211535"/><stop offset="1" stop-color="#090c14"/></linearGradient><radialGradient id="glow" cx="50%" cy="35%" r="65%"><stop stop-color="#f0d6ff" stop-opacity=".24"/><stop offset="1" stop-color="#9344c8" stop-opacity="0"/></radialGradient></defs>
<rect x="8" y="8" width="464" height="664" rx="28" fill="url(#bg)" stroke="#9344c8" stroke-width="8"/><rect x="20" y="20" width="440" height="640" rx="20" fill="url(#glow)"/>
<text x="34" y="52" fill="#f0d6ff" font-size="20" font-family="Arial" font-weight="700">WAIFUMON • CARTA 07</text><text x="446" y="52" text-anchor="end" fill="#9344c8" font-size="26" font-family="Arial" font-weight="700">R</text>
<ellipse cx="240" cy="355" rx="122" ry="176" fill="#11151f" opacity=".65"/><path d="M145 330 Q150 215 240 190 Q330 215 335 330 L325 410 Q240 465 155 410 Z" fill="#694b90"/><ellipse cx="240" cy="335" rx="88" ry="110" fill="#f2d1bd"/><path d="M152 310 Q158 208 240 184 Q322 208 328 310 Q300 270 282 252 Q252 270 214 254 Q185 276 152 310Z" fill="#694b90"/>
<path d="M170 425 Q240 382 310 425 L345 540 L135 540Z" fill="#9344c8"/><path d="M184 430 Q240 470 296 430" fill="none" stroke="#f0d6ff" stroke-width="10" opacity=".55"/><ellipse cx="205" cy="334" rx="12" ry="16" fill="#efc64e"/><ellipse cx="275" cy="334" rx="12" ry="16" fill="#efc64e"/><circle cx="208" cy="337" r="5" fill="#10131b"/><circle cx="278" cy="337" r="5" fill="#10131b"/><path d="M216 384 Q240 400 264 384" fill="none" stroke="#9e5c66" stroke-width="5" stroke-linecap="round"/><circle cx="335" cy="248" r="24" fill="#9344c8" opacity=".8"/><text x="335" y="257" text-anchor="middle" fill="#f0d6ff" font-size="22" font-family="Arial" font-weight="700">✦</text>
<rect x="32" y="560" width="416" height="74" rx="18" fill="#0a0d14" stroke="#9344c8" stroke-width="2"/><text x="48" y="591" fill="#ffffff" font-size="23" font-family="Arial" font-weight="700">Kuroka</text><text x="48" y="616" fill="#f0d6ff" font-size="14" font-family="Arial">High School DxD</text><text x="350" y="589" fill="#9344c8" font-size="20" font-family="Arial" font-weight="700">CLASE SS</text><text x="350" y="614" fill="#f0d6ff" font-size="12" font-family="Arial">ELEMENTO: OSCURIDAD</text><text x="240" y="654" text-anchor="middle" fill="#aab3c7" font-size="11" font-family="Arial">ARTE ORIGINAL LOCAL • NO CANON VISUAL</text></svg>